<?xml version="1.0" encoding="UTF-8"?>
<svg id="Layer_1" xmlns="http://www.w3.org/2000/svg" xmlns:xlink="http://www.w3.org/1999/xlink" version="1.1" viewBox="0 0 357.8 357.8">
  <!-- Generator: Adobe Illustrator 29.2.1, SVG Export Plug-In . SVG Version: 2.1.0 Build 116)  -->
  <defs>
    <style>
      .st0 {
        fill: #5ba6f1;
      }

      .st1 {
        isolation: isolate;
      }

      .st2 {
        fill: #696a6e;
      }

      .st3 {
        fill: #fff;
      }

      .st4 {
        fill: #03a9f4;
      }
    </style>
  </defs>
  <g>
    <path class="st3" d="M249.1,56.9c-2-5.4-4.6-10.6-7.9-15.2s-11.3-1.1-11.1-1.5,9.3.2,12.7-.8c7.7-2.3,29.5-14,27.5-14.6s-13,3.5-23.5.2c-1.2-.4-11.5-5.3-13.4-6.2-17.7-8.6-41-10.3-54.5-10.3-32.1,0-59.4,20.2-70.1,48.5-29.3,4.5-51.9,29.9-51.9,60.4h0c0,33.6,27.5,61.1,61.1,61.1h121.8c33.6,0,61.1-27.5,61.1-61.1h0c0-30.4-22.6-55.9-51.9-60.4h.1Z"/>
    <path class="st3" d="M182.1,177.5c57.9,0,104.9,33.7,104.9,75.3H77.2c0-41.6,47-75.3,104.9-75.3h0Z"/>
    <path class="st4" d="M286.1,105.1c-.5,0-1,0-1.5,0-5.3-20.7-24.1-36.1-46.5-36.1s-29.9,7.7-38.6,19.5c-3.1-2.6-10.2-7.4-21.5-7.4s-18.4,4.7-21.5,7.3c-8.7-11.8-22.8-19.4-38.6-19.4-22.4,0-41.2,15.3-46.5,36h-.5c-6.6,0-12,5.4-12,12s5.4,12,12,12,.3,0,.5,0c5.3,20.7,24.1,36,46.5,36s48-21.5,48-48-1.3-12.9-3.8-18.6c3.8-2.6,9.1-4.9,15.9-4.9s12,2.3,15.8,4.9c-2.4,5.7-3.7,12-3.7,18.6,0,26.5,21.5,48,48,48s41.2-15.4,46.5-36.1c.5,0,1,.1,1.5.1,6.6,0,12-5.4,12-12s-5.4-12-12-12h0ZM117.9,152.1c-19.3,0-35-15.7-35-35s15.7-35,35-35,33.2,14,34.8,31.8c-1.4-5-6-8.8-11.5-8.8s-12,5.4-12,12,5.4,12,12,12,10.1-3.7,11.5-8.8c-1.6,17.8-16.6,31.8-34.8,31.8h0ZM238.1,152.1c-18.7,0-34-14.7-35-33.2.9,5.8,5.8,10.2,11.9,10.2s12-5.4,12-12-5.4-12-12-12-11,4.4-11.9,10.2c.9-18.5,16.2-33.2,35-33.2s35,15.7,35,35-15.7,35-35,35h0Z"/>
    <path class="st0" d="M166.5,196.6l-25.3-8,5.1-6.5,25.4,4.5-5.2,10ZM191.9,186.6l25.4-4.5,5.1,6.5-25.3,8-5.2-10ZM188.8,184.6v7.3h-13.8v-7.3h13.8ZM181.9,246.3l-11.4-5.8,4.3-45.4h14.1l4.3,45.4-11.4,5.8h.1,0Z"/>
  </g>
  <g>
    <g class="st1">
      <path class="st3" d="M124.8,298.5v8.7h-18.4c-2,0-3.7.4-5.2,1.1-1.5.8-2.2,1.8-2.2,3.2s.2,1.6.5,2.2c.3.7.7,1.2,1.2,1.6s1.1.8,2.1,1.3c.9.5,1.7.8,2.2.9.5.2,2.7.9,6.6,2.1s6.8,2.3,8.6,3.1c1.9.8,3.3,2,4.3,3.4s1.6,2.8,1.9,4.2c.3,1.4.4,2.7.4,4,0,9.3-6.4,13.9-19.1,13.9h-18v-8.7h18c6.5,0,9.8-1.7,9.8-5.2s-1-3.1-2.9-4.2-4.2-2-7-2.8c-2.7-.8-5.5-1.6-8.2-2.7-2.7-1-5.1-2.6-7-4.9s-2.9-5-2.9-8.4,1.6-7.5,4.9-9.7c3.3-2.3,7.2-3.4,11.9-3.4h18.4v.3h0Z"/>
      <path class="st3" d="M162.1,298.5h10.1l-12.6,21.7c8.5,2.3,12.8,9.2,12.8,20.7v7.5h-9.2v-7.6c0-4.6-1.4-8.2-4.1-10.8-2.7-2.5-6.6-3.8-11.7-3.8s-3.2.1-4.9.3v21.8h-9.2v-72.8h9.2v42.7c2.9-.4,5.8-.4,8.7,0l10.8-19.9v.2h0Z"/>
      <path class="st3" d="M179.3,312c0-11.6,3.3-20.5,9.6-26.9s15.1-9.5,26.3-9.5h6.8v9.2h-8c-7.7,0-13.6,2.5-17.7,7.6-4.1,5.1-6.3,11.6-6.4,19.6.1,8,2.3,14.5,6.4,19.6,4.1,5.1,10,7.6,17.7,7.6h8v9.2h-6.8c-11.2,0-19.9-3.2-26.3-9.5-6.3-6.3-9.6-15.3-9.6-26.9h0Z"/>
      <path class="st3" d="M226.3,284.7v-9.2h45.8v9.2h-18v63.6h-9.8v-63.6h-18Z"/>
      <path class="st3" d="M277,312.3c0-5.8.9-11,2.6-15.6s4-8.6,7-11.9,6.6-5.8,10.7-7.6c4.2-1.8,8.8-2.7,13.9-2.7s9.7.9,13.9,2.7c4.2,1.8,7.8,4.3,10.8,7.6,3,3.3,5.3,7.3,7,11.9s2.5,9.8,2.6,15.6c0,5.8-.9,10.9-2.5,15.5s-3.9,8.5-6.9,11.6c-3,3.2-6.6,5.7-10.8,7.4-4.2,1.7-8.9,2.6-14,2.6s-9.8-.9-14-2.6-7.8-4.2-10.8-7.4c-3-3.2-5.3-7.1-6.9-11.6-1.6-4.6-2.5-9.7-2.5-15.5h-.1ZM334.9,312.3c0-3.9-.6-7.6-1.7-11-1.1-3.5-2.6-6.5-4.7-9.1s-4.5-4.7-7.4-6.2-6.2-2.3-9.9-2.3-7,.8-9.9,2.3-5.4,3.6-7.4,6.2-3.6,5.6-4.7,9.1-1.6,7.1-1.7,11c0,4,.6,7.6,1.7,11s2.6,6.3,4.7,8.8c2,2.5,4.5,4.5,7.4,5.9s6.2,2.2,9.9,2.2,7-.7,9.9-2.2,5.4-3.4,7.4-5.9,3.6-5.4,4.7-8.8,1.6-7.1,1.7-11Z"/>
    </g>
    <polygon id="_x3C_29" class="st4" points="73.7 348.4 48.5 290.5 48 290.5 24.1 348.4 12.4 348.4 43.4 276.4 52.3 276.4 85.4 348.4 73.7 348.4"/>
  </g>
  <g>
    <path class="st0" d="M-238.9,56.9c-2-5.4-4.6-10.6-7.9-15.2s-11.3-1.1-11.1-1.5,9.3.2,12.7-.8c7.7-2.3,29.5-14,27.5-14.6s-13,3.5-23.5.2c-1.2-.4-11.5-5.3-13.4-6.2-17.7-8.6-41-10.3-54.5-10.3-32.1,0-59.4,20.2-70.1,48.5-29.3,4.5-51.9,29.9-51.9,60.4h0c0,33.6,27.5,61.1,61.1,61.1h121.8c33.6,0,61.1-27.5,61.1-61.1h0c0-30.4-22.6-55.9-51.9-60.4h.1Z"/>
    <path class="st0" d="M-305.9,177.5c57.9,0,104.9,33.7,104.9,75.3h-209.8c0-41.6,47-75.3,104.9-75.3h0Z"/>
    <path class="st3" d="M-201.9,105.1c-.5,0-1,0-1.5,0-5.3-20.7-24.1-36.1-46.5-36.1s-29.9,7.7-38.6,19.5c-3.1-2.6-10.2-7.4-21.5-7.4s-18.4,4.7-21.5,7.3c-8.7-11.8-22.8-19.4-38.6-19.4-22.4,0-41.2,15.3-46.5,36h-.5c-6.6,0-12,5.4-12,12s5.4,12,12,12,.3,0,.5,0c5.3,20.7,24.1,36,46.5,36s48-21.5,48-48-1.3-12.9-3.8-18.6c3.8-2.6,9.1-4.9,15.9-4.9s12,2.3,15.8,4.9c-2.4,5.7-3.7,12-3.7,18.6,0,26.5,21.5,48,48,48s41.2-15.4,46.5-36.1c.5,0,1,.1,1.5.1,6.6,0,12-5.4,12-12s-5.4-12-12-12h0ZM-370.1,152.1c-19.3,0-35-15.7-35-35s15.7-35,35-35,33.2,14,34.8,31.8c-1.4-5-6-8.8-11.5-8.8s-12,5.4-12,12,5.4,12,12,12,10.1-3.7,11.5-8.8c-1.6,17.8-16.6,31.8-34.8,31.8h0ZM-249.9,152.1c-18.7,0-34-14.7-35-33.2.9,5.8,5.8,10.2,11.9,10.2s12-5.4,12-12-5.4-12-12-12-11,4.4-11.9,10.2c.9-18.5,16.2-33.2,35-33.2s35,15.7,35,35-15.7,35-35,35h0Z"/>
    <path class="st3" d="M-321.5,196.6l-25.3-8,5.1-6.5,25.4,4.5-5.2,10ZM-296.1,186.6l25.4-4.5,5.1,6.5-25.3,8-5.2-10ZM-299.2,184.6v7.3h-13.8v-7.3h13.8ZM-306.1,246.3l-11.4-5.8,4.3-45.4h14.1l4.3,45.4-11.4,5.8h.1,0Z"/>
  </g>
  <g>
    <g class="st1">
      <path class="st2" d="M-363.2,298.5v8.7h-18.4c-2,0-3.7.4-5.2,1.1-1.5.8-2.2,1.8-2.2,3.2s.2,1.6.5,2.2c.3.7.7,1.2,1.2,1.6s1.1.8,2.1,1.3c.9.5,1.7.8,2.2.9.5.2,2.7.9,6.6,2.1s6.8,2.3,8.6,3.1c1.9.8,3.3,2,4.3,3.4s1.6,2.8,1.9,4.2c.3,1.4.4,2.7.4,4,0,9.3-6.4,13.9-19.1,13.9h-18v-8.7h18c6.5,0,9.8-1.7,9.8-5.2s-1-3.1-2.9-4.2-4.2-2-7-2.8c-2.7-.8-5.5-1.6-8.2-2.7-2.7-1-5.1-2.6-7-4.9s-2.9-5-2.9-8.4,1.6-7.5,4.9-9.7c3.3-2.3,7.2-3.4,11.9-3.4h18.4v.3h0Z"/>
      <path class="st2" d="M-325.9,298.5h10.1l-12.6,21.7c8.5,2.3,12.8,9.2,12.8,20.7v7.5h-9.2v-7.6c0-4.6-1.4-8.2-4.1-10.8-2.7-2.5-6.6-3.8-11.7-3.8s-3.2.1-4.9.3v21.8h-9.2v-72.8h9.2v42.7c2.9-.4,5.8-.4,8.7,0l10.8-19.9v.2h0Z"/>
      <path class="st2" d="M-308.7,312c0-11.6,3.3-20.5,9.6-26.9s15.1-9.5,26.3-9.5h6.8v9.2h-8c-7.7,0-13.6,2.5-17.7,7.6-4.1,5.1-6.3,11.6-6.4,19.6.1,8,2.3,14.5,6.4,19.6,4.1,5.1,10,7.6,17.7,7.6h8v9.2h-6.8c-11.2,0-19.9-3.2-26.3-9.5-6.3-6.3-9.6-15.3-9.6-26.9h0Z"/>
      <path class="st2" d="M-261.7,284.7v-9.2h45.8v9.2h-18v63.6h-9.8v-63.6h-18Z"/>
      <path class="st2" d="M-211,312.3c0-5.8.9-11,2.6-15.6s4-8.6,7-11.9,6.6-5.8,10.7-7.6c4.2-1.8,8.8-2.7,13.9-2.7s9.7.9,13.9,2.7c4.2,1.8,7.8,4.3,10.8,7.6,3,3.3,5.3,7.3,7,11.9s2.5,9.8,2.6,15.6c0,5.8-.9,10.9-2.5,15.5s-3.9,8.5-6.9,11.6c-3,3.2-6.6,5.7-10.8,7.4-4.2,1.7-8.9,2.6-14,2.6s-9.8-.9-14-2.6-7.8-4.2-10.8-7.4c-3-3.2-5.3-7.1-6.9-11.6-1.6-4.6-2.5-9.7-2.5-15.5h-.1ZM-153.1,312.3c0-3.9-.6-7.6-1.7-11-1.1-3.5-2.6-6.5-4.7-9.1s-4.5-4.7-7.4-6.2-6.2-2.3-9.9-2.3-7,.8-9.9,2.3-5.4,3.6-7.4,6.2-3.6,5.6-4.7,9.1-1.6,7.1-1.7,11c0,4,.6,7.6,1.7,11s2.6,6.3,4.7,8.8c2,2.5,4.5,4.5,7.4,5.9s6.2,2.2,9.9,2.2,7-.7,9.9-2.2,5.4-3.4,7.4-5.9,3.6-5.4,4.7-8.8,1.6-7.1,1.7-11Z"/>
    </g>
    <polygon id="_x3C_291" data-name="_x3C_29" class="st4" points="-414.3 348.4 -439.5 290.5 -440 290.5 -463.9 348.4 -475.6 348.4 -444.6 276.4 -435.7 276.4 -402.6 348.4 -414.3 348.4"/>
  </g>
</svg>